# xmcd
#
# Track frame offsets:
#	150
#	39047
#	54344
#	73465
#	104876
#	123178
#	131191
#	146598
#	248738
#	281125
#	295742
#
# Disc length: 3974 seconds
#
# Revision: 1
# Processed by: cddbd v1.5.2PL0 Copyright (c) Steve Scherf et al.
# Submitted via: audiograbber 1.83.01
#
DISCID=af0f840b
DTITLE=Grateful Dead - 69-12-12 Thelma Theatre, Los Angeles CA
DYEAR=1900
DGENRE=
TTITLE0=Uncle John's Band
TTITLE1=He Was A Friend Of Mine
TTITLE2=Alligator
TTITLE3=Drums
TTITLE4=Alligator
TTITLE5=We Bid You Goodnight Theme
TTITLE6=Jam
TTITLE7=Caution
TTITLE8=Feedback
TTITLE9=We Bid You Goodnight
TTITLE10=Applause
EXTD=
EXTT0=
EXTT1=
EXTT2=
EXTT3=
EXTT4=
EXTT5=
EXTT6=
EXTT7=
EXTT8=
EXTT9=
EXTT10=
PLAYORDER=
